<svg width="327" height="207" viewBox="0 0 327 207" fill="none" xmlns="http://www.w3.org/2000/svg">
<path opacity="0.1" d="M297.289 36.0967H173.882L146.956 189.916L272.242 191.795L297.289 36.0967Z" fill="white"/>
<path d="M292.404 28.9578H168.997L142.072 182.777H265.479L292.404 28.9578Z" fill="#5E75E3"/>
<path opacity="0.2" d="M253.271 46.7804C251.559 46.7804 250.171 45.3927 250.171 43.6808C250.171 41.9689 251.559 40.5812 253.271 40.5812C254.983 40.5812 256.371 41.9689 256.371 43.6808C256.371 45.3927 254.983 46.7804 253.271 46.7804Z" fill="white"/>
<path opacity="0.2" d="M233.511 46.7804C231.799 46.7804 230.411 45.3927 230.411 43.6808C230.411 41.9689 231.799 40.5812 233.511 40.5812C235.223 40.5812 236.61 41.9689 236.61 43.6808C236.61 45.3927 235.223 46.7804 233.511 46.7804Z" fill="white"/>
<path opacity="0.2" d="M213.363 46.7804C211.651 46.7804 210.264 45.3927 210.264 43.6808C210.264 41.9689 211.651 40.5812 213.363 40.5812C215.075 40.5812 216.463 41.9689 216.463 43.6808C216.463 45.3927 215.075 46.7804 213.363 46.7804Z" fill="white"/>
<path opacity="0.2" d="M193.603 46.7804C191.891 46.7804 190.503 45.3927 190.503 43.6808C190.503 41.9689 191.891 40.5812 193.603 40.5812C195.315 40.5812 196.703 41.9689 196.703 43.6808C196.703 45.3927 195.315 46.7804 193.603 46.7804Z" fill="white"/>
<path d="M262.957 29.1697C261.249 23.2961 255.781 18.8229 250.314 22.6052C244.847 26.3873 247.922 41.9535 253.731 43.6808" stroke="#FF814C" stroke-width="1.8787"/>
<path d="M243.198 29.1697C241.446 23.2961 235.842 18.8229 230.238 22.6052C224.634 26.3873 227.786 41.9535 233.74 43.6808" stroke="#FF814C" stroke-width="1.8787"/>
<path d="M223.05 29.1697C221.341 23.2961 215.874 18.8229 210.407 22.6052C204.939 26.3873 208.015 41.9535 213.824 43.6808" stroke="#FF814C" stroke-width="1.8787"/>
<path d="M203.289 29.1697C201.538 23.2961 195.934 18.8229 190.33 22.6052C184.726 26.3873 187.878 41.9535 193.833 43.6808" stroke="#FF814C" stroke-width="1.8787"/>
<path d="M258.695 78.9391H182.754" stroke="white" stroke-width="1.12722"/>
<path d="M255.596 93.2753H179.267" stroke="white" stroke-width="1.12722"/>
<path d="M252.496 107.998H176.555" stroke="white" stroke-width="1.12722"/>
<path d="M249.396 122.334H173.843" stroke="white" stroke-width="1.12722"/>
<path d="M246.684 136.67H171.131" stroke="white" stroke-width="1.12722"/>
<path d="M243.972 151.393H167.644" stroke="white" stroke-width="1.12722"/>
<path d="M40.1952 84.6529C60.5304 51.7451 99.5989 74.4734 92.0464 99.019C87.0439 115.277 96.7988 153.296 138.57 128.784" stroke="#5B35FF" stroke-width="1.00051" stroke-dasharray="3 3"/>
<path d="M19.4757 93.2985C13.3164 86.6976 0.797984 73.2976 -0.000198869 72.5055L27.4662 83.3971L19.4757 93.2985Z" fill="#FFBDEA"/>
<path d="M-0.00049526 72.5055L27.5299 83.5437L40.0443 74.5125L-0.00049526 72.5055Z" fill="#FFBDEA"/>
<path d="M-0.000502929 72.5055L27.3992 83.5032L24.41 86.5026L31.8831 91.5016L33.6267 79.0042L-0.000502929 72.5055Z" fill="#EA9BD1"/>
<path d="M78.5403 114.527H104.237V130.535H78.5403V114.527Z" fill="#F37DC0"/>
<path opacity="0.5" d="M91.3882 123.795L104.237 114.527H78.5394L91.3882 123.795Z" fill="white"/>
<circle cx="91.2962" cy="153.525" r="1.75089" stroke="white" stroke-width="1.00051"/>
<circle cx="120.811" cy="191.545" r="1.75089" stroke="white" stroke-width="1.00051"/>
<circle cx="43.7722" cy="126.011" r="3.25165" stroke="#F37DC0" stroke-width="1.00051"/>
<circle cx="266.884" cy="203.05" r="3.25165" stroke="#F37DC0" stroke-width="1.00051"/>
<circle cx="125.814" cy="72.9846" r="4.25215" stroke="white" stroke-width="1.00051"/>
<rect x="323.462" y="0.905219" width="4.00203" height="27.0137" rx="2.00101" transform="rotate(45 323.462 0.905219)" stroke="#F37DC0" stroke-width="1.00051"/>
<rect x="47.2069" y="165.428" width="4.00203" height="33.0167" rx="2.00101" transform="rotate(-60 47.2069 165.428)" stroke="#FDD20D" stroke-width="1.00051"/>
</svg>
