<svg width="348" height="313" viewBox="0 0 348 313" fill="none" xmlns="http://www.w3.org/2000/svg">
<path d="M35.6284 136.715C35.9634 136.603 36.2985 136.547 36.6894 136.435C37.0803 136.324 37.4712 136.324 37.8621 136.268C38.253 136.212 38.6998 136.212 39.0348 136.212C39.2024 136.212 39.4257 136.212 39.5933 136.212C39.7608 136.212 39.8725 136.212 40.04 136.212C40.1517 136.212 40.2634 136.212 40.3751 136.212C40.4309 136.212 40.5426 136.212 40.5985 136.212H40.4309C40.3192 136.212 40.2075 136.156 40.0959 136.156C39.9283 136.1 39.705 136.044 39.4816 135.989L39.314 135.933H39.2582H39.2024C33.8414 134.146 85.8319 151.346 63.8295 144.086L63.8853 143.918L64.0529 143.583C64.8905 141.852 65.6723 139.842 66.3983 137.943C65.1697 139.227 64.1645 140.624 63.271 142.187C63.0477 142.578 62.8243 143.025 62.6568 143.416L62.6009 143.583V143.639C15.8596 128.17 49.6452 139.339 39.2024 135.877L39.3699 135.933C39.5933 135.989 39.8166 136.044 40.04 136.1C40.1517 136.156 40.3192 136.156 40.4309 136.212L40.5985 136.268H40.5426C40.4309 136.268 40.3751 136.268 40.2634 136.268C40.0959 136.268 39.9283 136.268 39.7608 136.268C39.5374 136.268 39.314 136.268 39.0907 136.268C38.0855 136.212 36.7452 136.379 35.6284 136.715Z" fill="#FFF29C"/>
<path d="M66.3983 137.831V137.776C66.3983 137.831 66.3425 137.887 66.3425 137.887C66.3983 137.887 66.3983 137.887 66.3983 137.831Z" fill="#FFF29C"/>
<path d="M341.485 310.054C341.652 308.881 341.82 307.597 341.988 306.256C341.764 307.485 341.541 308.769 341.485 310.054Z" fill="#FFF29C"/>
<path d="M166.08 70.8747C166.08 70.8747 166.526 70.2605 166.973 69.6462C167.42 69.0319 167.866 68.4176 167.866 68.4176C168.369 68.4735 167.811 69.1994 167.252 69.8137C166.75 70.428 166.191 70.9864 166.638 70.7631C168.481 69.1436 168.816 69.367 168.648 69.7579C168.537 70.1488 167.922 70.5955 169.374 70.0371C168.983 70.2046 168.983 70.5397 167.308 71.2098C168.76 70.6514 168.983 70.7072 168.872 70.8189C168.816 70.9306 168.425 71.154 168.816 71.0981C169.653 70.9306 169.709 70.8189 170.603 70.4838C170.603 70.4838 170.882 70.5397 171.161 70.6514C171.441 70.7631 171.664 70.8747 171.664 70.8747C170.659 71.3215 168.928 71.5449 168.648 71.4332C168.369 71.7124 167.755 72.1592 167.196 72.3825C166.917 72.4942 166.638 72.6059 166.359 72.6618C166.247 72.6618 166.135 72.7176 166.024 72.7176C165.968 72.7176 165.912 72.7176 165.856 72.7176C165.856 72.7176 165.856 72.7176 165.8 72.7176L165.13 73.2202L163.678 74.3371C159.657 77.2968 155.302 80.2565 150.834 83.1604C146.367 86.0643 141.787 88.9681 137.487 91.7045C135.533 92.9889 133.578 94.2175 131.736 95.3902C129.669 96.7304 127.659 98.0148 125.76 99.2434C121.907 101.756 118.389 104.158 115.15 106.336C113.586 107.452 112.079 108.513 110.627 109.519C109.175 110.524 107.946 111.529 106.718 112.423C105.489 113.372 104.372 114.21 103.367 114.991C102.362 115.829 101.468 116.555 100.631 117.225C101.859 116.778 103.255 115.997 104.707 115.047C106.215 114.154 107.779 113.093 109.398 112.032C110.962 110.971 112.637 110.021 114.201 109.239C115.764 108.458 117.272 107.899 118.556 107.732C115.429 110.747 112.637 112.534 110.459 114.042C109.342 114.768 108.337 115.438 107.555 116.108C106.718 116.778 106.103 117.448 105.712 118.23C104.205 118.23 102.362 118.956 100.463 120.073C98.5643 121.19 96.4981 122.754 94.4319 124.317C93.4267 125.099 92.3657 125.937 91.3046 126.774C90.802 127.165 90.2436 127.556 89.6852 127.947C89.1267 128.338 88.6241 128.729 88.1215 129.12C87.0605 129.846 85.9995 130.572 84.9384 131.13C84.38 131.409 83.8216 131.689 83.319 131.968C82.7605 132.247 82.2579 132.47 81.6995 132.638C81.6995 132.638 81.867 133.196 82.0346 133.811C82.2021 134.369 82.4255 134.928 82.4255 134.928C82.4255 134.928 81.3086 135.542 80.1917 136.156C79.6333 136.491 79.0748 136.77 78.6839 136.994C78.293 137.217 78.0138 137.385 78.0138 137.385C72.4294 143.863 69.9165 147.381 68.3528 149.503C66.845 151.569 66.3424 152.239 65.8399 152.742C65.3373 153.3 64.8347 153.691 63.271 155.422C62.4892 156.26 61.484 157.433 60.0879 159.108C59.362 159.946 58.636 160.895 57.7425 161.956C57.2957 162.514 56.849 163.073 56.3464 163.687C55.8438 164.301 55.3971 164.972 54.8945 165.642C50.5387 172.064 48.8633 176.643 47.5231 180.329C46.853 182.227 46.3504 183.847 45.6244 185.522C45.2893 186.36 44.9543 187.142 44.5075 187.979C44.2841 188.37 44.0608 188.817 43.8374 189.208C43.614 189.655 43.3348 190.045 43.1114 190.492C43.3348 189.99 44.1725 188.984 44.8984 188.482C45.6244 187.979 46.127 187.979 45.7919 189.431C45.1218 189.71 44.675 190.325 44.34 191.106C44.1725 191.497 44.0049 191.944 43.8932 192.447C43.7815 192.893 43.6699 193.396 43.5582 193.899C43.4465 194.401 43.3348 194.904 43.2231 195.406C43.1114 195.909 42.9997 196.356 42.8322 196.803C42.4971 197.696 42.0504 198.478 41.2686 199.036C40.9335 200.432 39.8725 203.448 39.7049 205.57C39.4257 207.692 39.7608 208.977 41.7153 206.854C41.492 207.078 41.2686 207.413 41.0452 207.748C40.5984 208.474 40.1517 209.367 39.7049 210.261C39.2582 211.154 38.9231 212.104 38.5322 212.774C38.1972 213.5 37.9179 213.947 37.6946 214.058C37.4712 214.114 37.2478 213.835 37.1361 212.83C36.5777 215.566 35.9076 218.358 36.466 220.034C36.466 220.034 36.6894 219.084 36.9686 218.135C37.2478 217.186 37.527 216.236 37.527 216.236C37.2478 220.704 36.8569 224.334 37.0244 227.461C37.192 230.588 37.8621 233.213 39.7049 235.502C39.7049 235.502 39.7049 234.553 39.7608 233.604C39.8166 232.654 39.8725 231.705 39.8725 231.705C40.4868 234.33 41.1569 236.619 41.827 238.853C42.4413 241.087 43.0556 243.265 42.7764 245.052C42.7764 245.052 42.4971 244.717 42.1062 244.158C41.7153 243.656 41.2127 242.93 40.7101 242.204C39.7608 240.807 39.0348 239.523 39.0348 239.523C39.4816 240.64 40.04 241.757 40.6543 242.874C41.2686 243.991 41.9387 245.052 42.6088 246.001C44.0049 247.955 45.3452 249.407 46.6296 250.524C47.914 251.697 49.1984 252.591 50.5945 253.372C51.2646 253.763 51.9906 254.154 52.7724 254.545C53.5542 254.88 54.336 255.215 55.1737 255.494L53.275 254.21C53.8334 254.378 54.5594 254.601 55.3412 254.936C55.7321 255.103 56.1789 255.271 56.6256 255.439C57.0724 255.606 57.575 255.774 58.0776 255.941C60.0879 256.667 62.5451 257.393 65.2814 257.952C65.9515 258.119 66.6775 258.231 67.4035 258.398C68.1294 258.51 68.8554 258.622 69.6372 258.733C71.145 259.013 72.7645 259.068 74.384 259.236C77.6787 259.403 81.1969 259.459 84.8826 259.18C88.5683 258.957 92.4773 258.398 96.3864 257.728C98.3968 257.393 100.295 257.058 102.362 256.555C103.367 256.332 104.372 256.109 105.321 255.885C106.327 255.606 107.332 255.383 108.337 255.103C108.84 254.992 109.286 254.824 109.789 254.713C110.012 254.657 110.236 254.601 110.515 254.545C110.738 254.489 111.017 254.378 111.241 254.322C112.246 254.042 113.195 253.763 114.089 253.484C114.536 253.316 114.982 253.205 115.429 253.037C115.653 252.981 115.876 252.87 116.099 252.814C116.323 252.758 116.546 252.646 116.769 252.591C117.663 252.255 118.556 251.976 119.394 251.641C120.232 251.306 121.014 251.027 121.795 250.748C122.186 250.58 122.521 250.468 122.856 250.301C123.024 250.245 123.191 250.189 123.359 250.078C123.527 250.022 123.694 249.91 123.917 249.854C125.314 249.24 126.486 248.681 127.491 248.179C127.491 248.179 126.43 247.955 125.369 247.732C125.258 247.676 125.09 247.676 124.978 247.62C124.867 247.565 124.755 247.565 124.643 247.509C124.42 247.453 124.252 247.341 124.029 247.285C123.694 247.174 123.471 247.062 123.471 247.062C123.471 247.062 124.197 246.783 125.258 246.336C125.537 246.224 125.816 246.113 126.095 245.945C126.43 245.778 126.765 245.666 127.101 245.498C127.826 245.163 128.552 244.828 129.278 244.493C130.73 243.823 132.238 243.153 133.355 242.65C134.528 242.092 135.254 241.701 135.254 241.701C134.919 241.813 134.137 242.483 133.132 243.488C132.071 244.493 130.898 245.722 129.669 246.894C127.212 249.296 124.755 251.585 124.476 251.306C125.258 251.083 126.095 250.803 127.045 250.524C127.547 250.357 128.05 250.245 128.552 250.078C128.832 250.022 129.055 249.91 129.334 249.854C129.613 249.742 129.893 249.631 130.228 249.575C131.456 249.184 132.741 248.681 134.137 248.235C134.807 248.011 135.533 247.732 136.315 247.509C136.706 247.397 137.041 247.285 137.432 247.118C137.823 246.95 138.213 246.783 138.66 246.671C145.138 244.27 153.291 240.752 162.17 236.954C171.05 233.269 180.487 229.806 190.316 227.237C191.544 226.902 192.829 226.567 194.057 226.232C194.839 226.065 195.621 225.897 196.403 225.674C197.017 225.506 197.631 225.395 198.301 225.227C198.916 225.115 199.586 224.948 200.2 224.836C200.814 224.724 201.484 224.557 202.099 224.445C202.713 224.334 203.383 224.222 203.997 224.11C205.282 223.887 206.51 223.663 207.795 223.496C212.821 222.77 217.847 222.379 222.482 222.323C223.654 222.323 224.771 222.323 225.944 222.323C227.061 222.379 228.178 222.435 229.239 222.435C230.3 222.547 231.361 222.602 232.422 222.714C233.483 222.77 234.432 222.937 235.438 223.049C239.347 223.552 242.753 224.222 245.434 225.004C246.104 225.171 246.774 225.339 247.332 225.506C247.891 225.73 248.449 225.897 248.952 226.065C249.957 226.4 250.795 226.735 251.409 227.014C253.308 228.243 253.252 228.969 252.693 229.471C252.135 229.974 251.13 230.253 251.074 230.365C252.358 230.588 253.14 230.644 253.698 230.644C254.257 230.644 254.536 230.532 254.871 230.421C255.15 230.309 255.43 230.253 255.821 230.309C256.044 230.309 256.323 230.365 256.658 230.476C256.993 230.588 257.384 230.756 257.831 231.035C258.78 231.817 256.993 232.319 256.323 232.263C257.217 232.543 257.943 232.989 258.557 233.269C259.171 233.548 259.562 233.715 259.841 233.38C259.004 232.543 258.948 231.761 259.171 230.867C259.395 230.03 259.785 229.136 259.618 228.243C259.618 228.243 259.953 228.41 260.456 228.634C260.958 228.857 261.572 229.192 262.187 229.583C262.801 229.918 263.415 230.253 263.918 230.532C264.365 230.811 264.644 230.979 264.644 230.979L263.694 232.152C264.197 232.487 265.37 231.984 267.045 231.817C268.609 231.761 270.731 232.04 272.741 234.05C274.807 235.726 276.539 237.401 277.767 238.797C277.935 238.965 278.046 239.076 278.158 239.244C278.27 239.356 278.381 239.523 278.493 239.635C278.716 239.914 278.94 240.193 279.107 240.472C279.498 241.031 279.889 241.645 280.224 242.259C280.727 243.209 281.062 244.27 281.341 245.331L281.509 246.113C281.565 246.504 281.62 246.839 281.676 247.285C281.732 247.676 281.788 248.123 281.788 248.57L281.844 249.24L281.9 249.966C281.006 249.91 280.336 248.179 279.554 246.95C279.666 247.788 280.113 249.24 279.554 250.357C280.224 249.296 280.615 250.078 280.783 251.083C280.839 251.306 280.894 251.585 280.95 251.809C281.006 252.032 281.006 252.255 281.062 252.423C281.118 252.702 281.229 252.758 281.397 252.311C282.402 253.987 282.905 256.109 283.072 258.454C283.128 259.013 283.184 259.627 283.184 260.297C283.184 260.911 283.184 261.526 283.184 262.196C283.184 263.424 283.128 264.709 283.072 265.937C282.793 270.907 282.235 275.71 283.072 279.786C283.854 280.01 287.651 281.518 292.957 283.751C298.206 285.985 304.963 289.001 311.664 292.128C318.366 295.255 325.067 298.606 330.316 301.175C335.565 303.743 339.307 305.642 340.312 305.754C339.754 308.714 339.195 311.617 338.749 312.455C339.81 311.841 341.206 306.145 341.15 302.962L339.139 302.124C339.307 298.55 339.642 298.159 340.089 297.824C340.536 297.489 341.038 297.154 341.373 293.692C343.104 293.524 342.714 300.002 341.988 305.642C342.993 300.616 344.836 295.646 343.216 293.357C344.445 288.61 345.226 294.138 346.567 288.386C346.511 284.142 345.282 278.614 346.567 273.923L346.846 274.035C347.46 271.131 347.628 268.562 347.572 266.216C347.572 265.044 347.46 263.871 347.349 262.754C347.237 261.637 347.125 260.576 346.958 259.403C346.79 258.231 346.678 257.058 346.511 255.885C346.343 254.657 346.232 253.428 346.12 252.032C345.897 249.352 345.841 246.392 345.897 242.706L346.623 244.214C346.902 241.645 346.399 237.792 345.338 232.822C344.165 227.405 342.267 221.541 340.312 215.901C340.815 217.521 341.094 219.14 340.815 219.531C340.536 219.922 339.865 219.084 338.358 215.901C337.967 214.896 337.576 213.891 337.185 212.941C334.784 207.58 331.824 203.336 328.92 199.651C328.194 198.757 327.468 197.808 326.686 196.97C325.96 196.132 325.234 195.239 324.508 194.401C323.168 192.838 321.94 191.386 320.711 189.822C320.711 189.822 320.264 189.543 319.594 189.208C318.924 188.817 318.086 188.37 317.193 187.868C316.355 187.421 315.462 186.974 314.847 186.639C314.233 186.36 313.786 186.136 313.786 186.136C312.055 184.684 309.989 183.232 307.644 181.557C307.029 181.166 306.471 180.72 305.801 180.273C305.186 179.882 304.516 179.435 303.846 178.988C302.506 178.151 301.11 177.201 299.602 176.364C293.627 172.79 286.367 169.272 278.27 166.312C270.172 163.352 261.293 160.951 252.023 159.443C242.753 157.879 233.204 157.209 223.766 157.321C214.217 157.433 205.058 158.326 196.459 159.722C192.159 160.448 188.026 161.23 184.061 162.124C183.056 162.347 182.107 162.57 181.101 162.794L180.711 162.905H180.599L180.822 162.85H180.934H180.878L180.766 162.905C180.599 162.961 180.431 163.073 180.264 163.129C178.979 163.743 177.695 164.413 176.969 164.748L177.248 164.357C176.355 164.86 175.238 165.474 174.009 166.144C172.725 166.814 171.273 167.485 169.598 167.987C168.76 168.211 167.867 168.434 166.917 168.49C166.47 168.546 165.968 168.546 165.465 168.49C165.018 168.434 164.628 168.099 164.516 167.764C164.292 167.094 164.292 166.479 164.292 165.865C164.292 165.251 164.348 164.692 164.46 164.19C164.683 163.017 164.907 162.068 164.907 161.174C166.917 160.504 167.867 160.057 168.592 159.611C169.263 159.22 169.709 158.829 170.435 158.55C169.709 158.717 168.816 158.773 168.202 158.773C167.587 158.773 167.252 158.605 167.531 158.438C168.983 157.265 168.648 157.209 168.09 157.098C167.587 156.986 166.805 156.818 168.146 155.366C168.704 154.473 170.435 153.021 172.725 151.513C173.283 151.122 173.898 150.731 174.568 150.34C177.025 148.777 179.538 147.157 182.107 145.538C187.579 142.02 193.443 138.222 199.307 134.09C202.266 132.024 205.226 129.902 208.186 127.612L209.303 126.774L209.638 126.551L210.029 126.216L210.866 125.546C211.927 124.652 213.044 123.815 214.105 122.921C215.166 122.028 216.227 121.134 217.232 120.241C218.238 119.347 219.354 118.454 220.304 117.504C228.345 110.189 235.27 102.538 240.631 95.2785C241.245 94.385 241.915 93.4357 242.53 92.5422C242.865 92.0954 243.144 91.6486 243.479 91.2019C243.758 90.7551 244.093 90.3084 244.373 89.8616C244.875 88.9681 245.434 88.0746 245.936 87.237C246.215 86.7902 246.439 86.3993 246.718 85.9526L247.109 85.3383L247.444 84.724C248.282 83.0487 249.175 81.4292 249.901 79.8098C250.236 79.0279 250.627 78.2461 250.906 77.4643C251.185 76.6825 251.521 75.9565 251.8 75.2306C252.861 72.2708 253.643 69.5903 254.257 67.189C254.48 65.9605 254.759 64.8436 254.927 63.7826C255.039 63.28 255.095 62.7215 255.206 62.2748C255.262 61.7722 255.318 61.3254 255.374 60.8787C255.039 57.193 254.704 53.2281 253.866 49.0956C253.643 48.0905 253.419 47.0294 253.14 45.9684C252.972 45.4658 252.861 44.9074 252.749 44.4048C252.582 43.9022 252.414 43.3996 252.247 42.8411C251.576 40.7749 250.795 38.7087 249.845 36.7542C248.896 34.7996 247.891 32.9009 246.718 31.1139C245.545 29.3828 244.261 27.7075 242.921 26.1997C240.24 23.1841 237.169 20.727 233.93 18.7725L235.605 19.2751C233.986 18.1582 231.417 16.3153 227.899 14.305C227.452 14.0257 227.005 13.8024 226.502 13.5231C226 13.2998 225.553 12.9647 224.995 12.7413C223.934 12.2387 222.761 11.7361 221.588 11.2335C220.416 10.7309 219.187 10.1725 217.958 9.61407C217.344 9.33485 216.674 9.05563 216.06 8.77641C215.892 8.72057 215.725 8.60888 215.557 8.55304L214.999 8.38551C214.664 8.27382 214.273 8.16213 213.882 8.05045C202.49 3.97385 186.853 0.790747 170.659 0.120622C168.648 -0.0469099 166.582 0.00893561 164.683 0.00893561C163.287 0.00893561 161.891 0.00893561 160.495 0.00893561C157.703 0.120623 154.967 0.23231 152.23 0.343998C149.55 0.567373 146.869 0.846594 144.356 1.06997C141.787 1.34919 139.33 1.7401 136.985 2.131C136.426 2.24269 135.812 2.29853 135.254 2.41022C134.695 2.52191 134.137 2.6336 133.578 2.74528C132.462 2.96866 131.4 3.19203 130.395 3.41541C129.39 3.63878 128.385 3.86216 127.436 4.02969C126.486 4.25306 125.593 4.53228 124.699 4.75566C122.968 5.20241 121.404 5.64916 120.064 6.04007C118.724 6.43098 117.607 6.87773 116.658 7.15695L118.724 6.87773C115.597 8.21798 113.363 9.05563 111.52 9.55823C109.733 10.1725 108.393 10.3959 107.053 10.5634C105.768 10.7309 104.484 10.7868 102.92 11.066C101.357 11.3452 99.5137 11.792 96.9449 12.6296C98.1176 13.579 96.163 15.5335 93.5942 17.6556C92.3098 18.7166 90.802 19.7218 89.4059 20.6711C88.0098 21.6763 86.7254 22.514 85.8319 23.0724L85.6644 22.4581C84.2683 23.3517 82.4255 24.5802 80.4709 26.1438C79.4657 26.9257 78.4606 27.7633 77.3437 28.601C76.7852 29.0477 76.2268 29.4945 75.6684 29.9412C75.1099 30.388 74.5515 30.8906 73.993 31.3932C71.7593 33.3477 69.4139 35.3022 67.2359 37.3684C66.1191 38.3736 65.058 39.3788 63.9412 40.3282C62.8801 41.2775 61.8749 42.2827 60.8698 43.1204L60.2555 41.7243C58.8035 43.4554 56.849 45.41 54.8386 47.532C53.8334 48.5931 52.7724 49.6541 51.6555 50.7151C50.5945 51.7762 49.5335 52.9489 48.4724 54.0099C47.4114 55.1268 46.3504 56.132 45.401 57.193C44.4517 58.254 43.5023 59.2592 42.6088 60.2644C41.7153 61.2138 40.9335 62.1073 40.2075 62.9449C39.5374 63.7826 38.9231 64.5085 38.4205 65.1228C37.8063 65.793 37.192 66.5189 36.5219 67.2449C35.8517 67.9709 35.1816 68.6968 34.5115 69.4786C33.1712 71.0423 31.7751 72.6617 30.379 74.3929C27.5868 77.8552 24.6271 81.6526 21.8908 85.8409C20.4947 87.9071 19.2103 90.085 17.9259 92.2629C17.3116 93.3798 16.6415 94.4408 16.083 95.6136C15.5246 96.7304 14.9661 97.9031 14.4077 99.0759C13.8493 100.249 13.2908 101.365 12.7882 102.538C12.2856 103.711 11.8389 104.884 11.3921 106.112C10.9454 107.285 10.4986 108.458 10.1077 109.686C9.71682 110.915 9.32592 112.255 8.99085 113.539C8.99085 113.539 8.43242 114.265 7.59476 115.326C7.20385 115.885 6.70126 116.499 6.19866 117.169C6.08697 117.337 5.91944 117.504 5.80775 117.672C5.69607 117.839 5.58438 117.951 5.47269 118.119C5.24932 118.398 5.02594 118.677 4.80257 118.956C2.95972 121.134 1.17272 123.368 1.17272 123.368C1.17272 123.368 1.17272 123.368 1.17272 123.424L0.949343 124.15C0.949343 124.15 0.949343 124.206 0.949343 124.261C0.949343 124.317 0.8935 124.373 0.8935 124.429C0.837656 124.541 0.837654 124.708 0.78181 124.876C0.614278 125.546 0.44675 126.495 0.335062 127.333C0.223374 128.226 0.111687 129.064 0.055843 129.678C-8.52941e-07 130.293 0 130.739 0 130.739C0 130.739 0.167528 131.074 0.502591 131.633C0.837654 132.191 1.28441 132.973 1.95453 133.922C3.29479 135.821 5.30516 138.39 8.37657 141.126C9.88435 142.467 11.7272 143.974 13.8493 145.315L14.2402 145.538C14.3519 145.594 14.5194 145.705 14.6869 145.817C14.9661 145.985 15.3012 146.152 15.5804 146.32C16.1947 146.655 16.7531 146.934 17.3674 147.213C18.0375 147.548 18.7077 147.828 19.3778 148.051C20.0479 148.274 20.6622 148.442 21.444 148.609C22.17 148.777 22.896 148.889 23.5661 148.944C24.2362 149 24.9622 149 25.6323 148.944C26.3024 148.889 26.9726 148.777 27.531 148.609L27.9777 148.498C28.1453 148.442 28.3128 148.442 28.5362 148.386C28.8712 148.33 29.2063 148.218 29.5414 148.107C30.2115 147.883 30.7699 147.604 31.2725 147.269C31.9427 146.99 31.831 146.487 31.9985 146.096C32.2219 145.259 32.5011 144.421 32.7245 143.528C33.618 140.065 34.3998 136.547 34.8465 133.029C35.0699 131.298 35.2374 129.567 35.2933 127.835C35.2933 127.389 35.3491 126.998 35.3491 126.551C35.3491 126.328 35.3491 126.16 35.3491 125.937C32.166 147.437 34.4556 131.912 33.7297 136.715L33.6738 136.77C33.618 136.826 33.5063 136.882 33.4504 136.938L33.2829 137.05L33.3388 137.106C33.3946 137.161 33.3946 137.217 33.4504 137.273V137.217C33.4504 137.217 33.4504 137.161 33.5063 137.161C33.5063 137.106 33.5621 137.106 33.618 137.05L33.6738 136.994L33.7855 136.882C33.8414 136.826 33.8972 136.77 33.953 136.715C34.0089 136.715 34.1206 136.603 34.2323 136.547C34.3439 136.491 34.4556 136.435 34.5673 136.38C34.7907 136.268 35.1258 136.1 35.405 136.044C35.74 135.933 36.1309 135.821 36.5219 135.765C36.9128 135.654 37.3595 135.654 37.8063 135.598C38.0296 135.598 38.253 135.542 38.4764 135.542C38.6998 135.542 38.8673 135.542 39.0907 135.486C39.2582 135.486 39.4816 135.486 39.6491 135.486C39.8166 135.486 39.9842 135.486 40.1517 135.486C40.5984 135.486 40.766 135.598 39.9842 135.43C39.7608 135.374 39.4816 135.319 39.2582 135.263L39.1465 135.207H39.0907C78.5722 148.33 50.0361 138.837 58.8594 141.796L58.9711 141.741L59.1944 141.573C59.4737 141.35 59.8087 141.182 60.0879 140.959C60.6464 140.512 61.2048 140.009 61.7633 139.451L63.0477 140.233C63.0477 140.233 63.3269 139.172 63.6061 138.167C63.7736 137.664 63.8853 137.105 63.997 136.715C64.1087 136.268 64.1645 136.156 64.1645 136.156C65.1697 134.704 65.3373 133.42 65.5048 132.638C65.5606 132.415 65.5606 132.247 65.6165 132.135C65.6723 131.968 65.7282 131.856 65.784 131.8C65.8957 131.633 66.1191 131.633 66.3983 131.856C66.3983 131.856 66.3424 131.912 66.2866 132.08C66.2308 132.191 66.1191 132.415 66.0632 132.582C65.8957 132.973 65.6723 133.532 65.4489 134.034C65.0022 135.095 64.4996 136.156 64.4996 136.156C66.1749 133.085 66.0074 135.598 66.3425 137.05C67.0126 135.821 67.6269 134.593 68.4645 133.755C68.1294 132.917 67.7385 133.978 67.2359 134.369C67.2918 133.922 67.2918 133.364 67.2918 132.806C67.3476 132.191 67.4593 131.465 67.571 130.795C67.6827 130.125 67.8502 129.455 68.0736 128.785C68.297 128.115 68.5762 127.5 69.0788 126.998C71.0333 123.368 71.3684 127.78 73.6021 123.647C76.6736 118.286 80.3034 113.26 84.2125 108.625C88.1215 103.99 92.3657 99.6902 96.889 95.7811C101.357 91.872 106.159 88.3539 111.129 85.2266C116.099 82.0994 121.237 79.4188 126.654 77.0176C127.38 77.3526 126.765 77.6318 126.263 78.1344C127.826 77.2968 129.39 76.4591 130.954 75.8448C131.736 75.5098 132.517 75.1747 133.299 74.8955L133.858 74.6721L134.472 74.4488C134.863 74.3371 135.254 74.1695 135.645 74.0578C136.426 73.7786 137.208 73.4994 137.99 73.2202C138.381 73.0527 138.772 72.941 139.163 72.8293L140.335 72.4942C141.117 72.2708 141.899 71.9916 142.681 71.7124C143.072 71.5449 143.463 71.4332 143.854 71.3215L145.026 70.9864C146.981 71.2656 147.595 72.0475 148.209 72.5501C147.874 72.2708 149.941 71.7682 153.18 71.0423C154.017 70.9306 154.911 70.7631 155.86 70.6514C156.809 70.5397 157.815 70.3163 158.876 70.2605C159.937 70.1488 161.054 70.0929 162.17 69.9812C162.729 69.9254 163.287 69.9254 163.846 69.9254C164.348 69.9254 164.851 69.9254 165.354 69.8696C165.8 70.5397 166.191 70.7072 166.08 70.8747Z" fill="#FFF29C"/>
</svg>
