<svg width="779" height="575" viewBox="0 0 779 575" fill="none" xmlns="http://www.w3.org/2000/svg">
<path d="M582.028 26.5001C581.528 26.0001 581.128 26.1001 580.528 26.2001C580.028 26.4001 579.328 26.6001 578.628 26.6001C579.428 27.8001 580.328 28.4001 581.028 28.4001C581.628 28.4001 582.128 27.6001 582.028 26.5001Z" fill="url(#paint0_linear_61_178)"/>
<path d="M773.228 551.8C776.228 543.3 778.028 533.4 778.328 524.3C777.928 533 776.128 542.6 773.228 551.8Z" fill="url(#paint1_linear_61_178)"/>
<path d="M99.828 189.4C99.828 189.4 101.128 189.7 102.328 189.9C103.628 190.2 104.828 190.4 104.828 190.4C104.928 190.8 105.028 191.3 105.028 191.7C105.028 191.8 105.028 191.9 105.128 192C105.228 192 105.228 192 105.228 192.1C105.328 192.1 105.328 192.2 105.328 192.2C105.328 192.3 105.228 192.4 105.028 192.5C104.628 192.7 103.928 192.8 103.328 193C102.628 193.2 102.028 193.3 101.628 193.5C101.428 193.6 101.328 193.7 101.428 193.8C101.428 193.9 101.628 194 101.928 194.2C104.328 194 105.728 194 106.528 194.2C107.328 194.5 107.528 195 107.528 195.6C107.528 196.4 107.328 197.2 107.528 197.8C107.828 198.6 108.528 199.2 110.528 199.3C110.228 199.3 110.128 199.5 110.028 199.8C109.928 199.9 109.928 200.1 109.828 200.2C109.728 200.4 109.728 200.6 109.628 200.8C109.328 201.7 108.528 202.6 106.328 203C108.328 202.9 109.528 203 110.228 203.2C110.928 203.5 111.428 203.7 111.128 204.6C110.828 206 109.628 207.8 110.628 209C112.928 209.5 113.128 207.7 115.628 206.3C115.628 206.3 115.828 206.7 116.128 207.2C116.228 207.3 116.328 207.5 116.328 207.6C116.328 207.7 116.428 207.8 116.428 207.8C116.428 207.9 116.428 208 116.428 208.2C116.328 208.7 116.328 209.3 116.228 209.9C115.928 212.2 115.828 214.4 115.828 214.4C115.528 214.7 115.228 215 114.928 215.2C114.628 215.5 114.428 215.8 114.128 216.1C113.628 216.7 113.028 217.3 112.428 217.7C111.328 218.7 110.128 219.4 109.228 219.8C107.228 220.6 105.828 219.9 106.228 217.3C105.328 219.4 104.428 222.2 103.228 225.4C102.928 226.2 102.628 227 102.328 227.9L102.228 228.2C102.228 228.3 102.328 228.4 102.328 228.6C102.428 228.8 102.528 229.1 102.628 229.3C102.828 229.8 103.028 230.3 103.228 230.8C104.028 232.8 104.828 234.9 105.628 237.1C105.828 237.7 106.028 238.2 106.228 238.8L106.528 239.7L106.628 239.9V240C106.728 240 106.728 240.1 106.828 240.1L107.728 240.4C110.128 241.2 112.528 242.1 114.928 242.9C119.828 244.6 125.028 246.4 130.328 248.3C140.128 248.7 150.128 249.1 160.528 249.5C163.128 249.6 165.728 249.7 168.428 249.8C169.728 249.9 171.128 249.9 172.428 250H173.428H173.928L174.528 249.9L176.928 249.7C183.428 249.1 190.128 248.5 196.828 247.9C203.528 247.3 210.328 246.7 217.228 246C218.928 245.8 220.728 245.7 222.428 245.5L225.028 245.3L226.328 245.2C226.728 245.2 227.228 245.1 227.528 245.1C230.128 245 232.728 245 235.328 244.9C240.628 244.8 245.928 244.6 251.328 244.5C254.028 244.4 256.728 244.4 259.428 244.3C260.828 244.3 262.128 244.2 263.528 244.2L265.628 244.1H266.628C266.928 244.1 267.328 244.1 267.528 244.1C275.728 245 284.028 246 292.528 246.9C293.628 247 294.628 247.1 295.728 247.3L297.328 247.5C297.828 247.6 298.228 247.7 298.728 247.8C300.528 248.2 302.428 248.6 304.228 249.1L306.928 249.8L309.528 250.6C311.328 251.1 312.928 251.7 314.628 252.3C316.328 252.9 317.928 253.5 319.528 254.1C321.128 254.7 322.728 255.5 324.228 256.1L326.528 257.2C327.328 257.6 328.028 257.9 328.928 258.4L329.528 258.8C329.628 258.8 329.628 258.9 329.628 258.9L329.928 258.5L330.428 257.8L331.328 256.5C331.928 255.7 332.528 254.8 333.228 254C333.828 253.2 334.328 252.5 334.928 251.8C336.128 250.3 337.028 249.1 338.128 247.9L339.628 246.2C340.128 245.7 340.528 245.2 341.028 244.7C341.428 244.2 341.828 243.8 342.228 243.4L343.428 242.2C344.128 241.5 345.028 240.8 345.528 240.3C345.828 240 346.128 239.8 346.528 239.5C346.728 239.3 347.028 239.1 347.328 238.9L347.728 238.6L347.828 238.5C348.128 238.6 345.128 237.2 346.428 237.8L346.528 237.9L346.828 238.1L347.928 239L348.428 239.4L348.728 239.6V239.5C348.628 239.3 348.528 239.1 348.528 238.9C348.528 238.8 348.428 238.7 348.428 238.6V238.4C348.428 238.3 348.428 238.3 348.428 238.3L348.228 238.4L347.628 238.6L346.728 238.9C345.228 239.3 342.828 239.8 339.828 240C336.728 240.2 333.028 240.1 329.128 239.5C328.128 239.4 327.128 239.2 326.128 239.1C325.128 238.9 324.128 238.8 323.128 238.5C322.128 238.3 321.128 238.1 320.128 237.8H320.028C319.928 237.9 319.828 238.3 319.528 238.8C319.028 239.8 318.128 241.2 317.228 242.4C316.728 243 316.228 243.6 315.828 244.1C315.628 244.4 315.428 244.5 315.228 244.8C314.728 245.2 314.128 245.7 313.628 246.2C309.428 250.1 304.828 253.4 300.428 256.2C299.228 256.9 298.128 257.5 297.128 258.2C296.628 258.5 296.128 258.8 295.628 259.1C295.128 259.4 294.528 259.7 294.028 259.9C293.028 260.4 292.028 261 291.228 261.5C290.428 262 289.428 262.4 288.728 262.8C291.028 263.4 293.628 262.2 296.428 261.3C297.728 260.8 299.028 260.4 300.328 260.2C301.628 260 302.928 260.1 304.128 260.6C303.628 261.3 303.028 261.9 302.428 262.4C301.828 262.9 301.228 263.3 300.728 263.7C300.128 264.1 299.628 264.4 299.128 264.6C298.628 264.9 298.028 265.1 297.528 265.3C296.528 265.7 295.628 266 294.828 266.5C294.028 267 293.528 267.6 292.928 268.5C290.128 266.1 286.428 267.5 281.828 268.9C277.328 270.3 272.028 271.6 268.028 269.4L266.828 273.7L262.028 272.8C260.928 273.3 259.828 273.7 258.828 274.1C257.828 274.5 256.828 274.9 255.828 275.2C253.928 275.9 252.328 276.5 250.828 277C247.828 278.1 245.628 278.8 244.028 279.4C240.728 280.5 239.628 280.8 238.728 281C237.828 281.1 237.128 281.1 234.128 281.5C232.628 281.7 230.628 282 227.828 282.4C226.328 282.6 224.728 282.9 222.828 283.2C220.828 283.5 218.628 283.9 216.128 284.3C204.328 286.9 195.228 290 187.428 292.8C185.428 293.5 183.528 294.1 181.728 294.7C179.828 295.3 178.028 295.9 176.228 296.4C172.628 297.4 169.028 298.2 165.128 298.6C167.328 298.1 173.728 299 167.028 301.5C166.528 300.8 165.228 300.8 163.328 301.3C161.428 301.8 159.128 302.7 156.728 303.6C155.528 304 154.328 304.5 153.128 304.9C151.928 305.3 150.728 305.7 149.628 306C147.428 306.6 145.628 306.8 144.528 306.3C142.728 306.9 140.028 307.8 136.928 308.8C136.128 309.1 135.328 309.3 134.528 309.6C133.428 310 132.528 310.2 131.228 310.7C128.828 311.6 126.428 312.5 124.328 313.4C120.028 315.2 116.428 316.7 114.928 318C113.428 319.3 113.828 319.9 117.228 319.8C115.528 319.9 112.328 320.7 108.728 321.7C106.928 322.2 105.028 322.8 103.128 323.3C102.228 323.6 101.228 323.9 100.328 324.1C99.428 324.4 98.628 324.7 97.828 325C91.528 327.2 87.928 328.2 96.428 323C93.828 324.2 91.328 325.4 88.828 326.5C87.528 327.1 86.328 327.6 85.128 328.2C84.528 328.5 83.928 328.8 83.328 329.1C82.728 329.4 82.228 329.7 81.628 330C77.128 332.5 73.128 334.9 70.028 337.2L83.228 331.1C79.228 333.4 75.428 335.6 71.828 337.6C71.328 337.9 70.928 338.1 70.428 338.4C70.028 338.7 69.628 338.9 69.128 339.2C68.328 339.7 67.428 340.3 66.628 340.8C65.028 341.8 63.428 342.9 61.828 343.8C60.228 344.8 58.728 345.7 57.228 346.7C55.728 347.7 54.528 348.7 53.128 349.7C50.528 351.7 48.028 353.6 45.528 355.4C44.928 355.9 44.228 356.3 43.728 356.8C43.228 357.3 42.628 357.8 42.128 358.3C41.128 359.3 40.128 360.2 39.028 361.2C37.028 363.1 35.128 365 33.328 367C30.028 371 27.128 375.1 25.028 379.7C25.028 379.7 25.628 379.2 26.428 378.3C26.828 377.9 27.328 377.4 27.828 376.9C28.328 376.4 28.928 375.9 29.528 375.4C30.728 374.4 31.828 373.3 32.828 372.5C33.728 371.7 34.328 371.2 34.328 371.2C27.928 378.4 23.028 385.5 18.928 391.5C14.828 397.5 11.528 402.4 7.828 405.4C7.828 405.4 8.228 404.3 8.828 402.6C9.328 400.9 10.328 398.7 11.228 396.4C11.628 395.3 12.228 394.2 12.628 393.2C13.128 392.2 13.528 391.2 13.928 390.4C14.728 388.8 15.328 387.7 15.328 387.7C11.928 393.3 9.12801 398.7 7.12801 403.9C6.82801 404.5 6.628 405.2 6.328 405.8C6.128 406.4 5.82801 407.1 5.62801 407.7C5.22801 409 4.728 410.2 4.328 411.5C3.628 414 2.828 416.5 2.328 419C1.728 421.5 1.328 424 0.928001 426.4C0.728001 427.6 0.627999 428.9 0.527999 430.1C0.427999 431.3 0.228004 432.6 0.228004 433.8C0.128004 435 0.127999 436.3 0.0279994 437.5C-0.0720006 438.7 0.128005 440 0.128005 441.3C0.228005 443.8 0.428005 446.4 0.628005 448.9C1.02801 451 1.328 453.1 1.828 455.3C2.228 457.5 2.828 459.7 3.328 462C3.328 462 3.028 459.6 2.728 457.3C2.528 456.1 2.428 454.9 2.328 454.1C2.228 453.2 2.228 452.6 2.228 452.6C2.428 453.6 2.728 454.8 3.028 456.1C3.328 457.4 3.628 458.8 4.028 460.4C4.328 462 4.928 463.6 5.428 465.3C5.728 466.2 5.928 467.1 6.228 468C6.528 468.9 6.928 469.8 7.228 470.8C7.528 471.7 7.928 472.7 8.328 473.7C8.728 474.7 9.12801 475.6 9.62801 476.7C10.028 477.7 10.528 478.7 11.028 479.8C11.528 480.8 12.028 481.8 12.628 482.9C13.628 485 14.928 487.1 16.128 489.3C16.728 490.4 17.428 491.4 18.128 492.5C18.828 493.6 19.528 494.7 20.328 495.7C26.428 504.3 34.328 512.9 44.228 520.7C49.128 524.6 54.428 528.4 60.328 531.8C63.328 533.5 66.228 535.2 69.228 536.8C69.928 537.2 70.728 537.6 71.528 538L73.928 539.1L78.728 541.3C80.328 542 81.928 542.8 83.528 543.5C85.228 544.1 86.928 544.8 88.528 545.4C90.228 546 91.828 546.7 93.528 547.3L96.028 548.3C96.828 548.6 97.728 548.9 98.628 549.1C102.028 550.2 105.428 551.3 108.828 552.3C110.528 552.9 112.228 553.3 113.928 553.7C115.628 554.1 117.328 554.6 119.028 555C120.728 555.4 122.428 555.9 124.028 556.3C125.728 556.7 127.428 557 129.128 557.4C132.428 558.1 135.728 558.8 138.928 559.4C140.528 559.7 142.128 560 143.728 560.3C145.428 560.6 147.028 560.8 148.628 561.1C149.228 561.2 149.828 561.3 150.528 561.4C151.028 561.5 151.528 561.5 152.028 561.6C153.028 561.7 154.028 561.8 155.028 561.9C170.828 563.5 182.728 563.6 188.228 562.9C188.228 562.9 185.828 561.8 183.428 560.6C181.028 559.5 178.628 558.3 178.628 558.3C178.628 558.3 179.828 558.3 181.628 558.2C183.428 558.1 185.728 558.1 188.128 558C190.528 557.9 192.828 557.8 194.528 557.7C196.228 557.6 197.428 557.6 197.428 557.6C196.328 557.5 193.928 560 191.428 562.4C189.028 564.8 186.528 567 185.628 566.3C186.928 566.4 188.328 566.6 189.828 566.8C191.328 566.9 193.028 567.1 194.928 567.3C198.628 567.7 202.828 568 207.528 568.4C212.128 568.7 217.128 569.1 222.628 569.5C227.928 569.8 233.628 570.2 239.628 570.6C251.628 571.4 265.228 572.2 280.028 572.7C287.428 572.9 295.128 573 303.028 573C310.928 572.9 319.128 572.6 327.328 572C335.528 571.5 344.028 570.5 352.328 569.3C360.628 568.1 368.528 566.6 376.128 565C391.228 561.8 404.828 558 416.628 554.7C428.428 551.4 438.428 548.4 446.528 546.2C454.528 544.1 460.828 542.4 464.828 541.7C477.928 540 468.528 546.3 468.528 546.8C476.028 544.1 477.428 542.8 478.628 541.8C479.828 540.8 480.728 540 487.328 538.5C491.028 538.2 487.228 541.3 485.428 542.3C488.228 541.3 491.028 540.9 493.028 540.4C495.128 540 496.528 539.5 496.528 538.7C489.228 539.2 491.128 534.4 487.528 532.4C487.528 532.4 491.728 531.5 495.928 530.6C500.128 529.6 504.328 528.9 504.328 528.9L504.128 531.7C506.028 531.3 507.928 529.1 511.528 526.6C513.328 525.3 515.528 524.1 518.328 523.1C521.128 522.1 524.528 521.2 528.628 520.8C542.428 518.9 556.528 517.2 570.428 516.1C584.328 515 598.028 515 610.828 516.1C610.528 516.9 609.128 517.4 607.028 517.8C606.528 517.9 605.928 518 605.328 518.1C604.728 518.2 604.128 518.3 603.428 518.4C602.128 518.6 600.828 518.8 599.428 519C601.128 519.1 603.328 519 605.428 519.2C607.528 519.4 609.628 519.8 611.128 520.4C605.228 517.2 621.928 519.3 617.228 517.8C619.628 517.2 622.028 517 624.528 516.8C625.828 516.7 627.028 516.7 628.328 516.7C628.928 516.7 629.628 516.7 630.228 516.7C630.828 516.8 631.528 516.8 632.128 516.9C634.628 517.2 637.228 517.5 639.828 517.9L641.728 518.2C642.328 518.3 643.028 518.5 643.628 518.6C644.828 518.9 646.128 519.2 647.328 519.5C648.528 519.8 649.828 520.1 651.028 520.4C651.628 520.6 652.228 520.7 652.828 520.9L653.728 521.1L654.528 521.3C656.528 521.9 658.528 522.5 660.428 523.1C662.128 523.6 663.628 524 664.828 524.3C666.128 524.6 667.028 524.7 668.028 524.6C668.428 524 669.728 522.3 671.828 519.9C672.828 518.7 674.128 517.3 675.628 515.9C677.128 514.4 678.728 512.9 680.728 511.2C684.528 508 689.428 504.7 695.128 502.1C695.828 501.8 696.628 501.5 697.328 501.2H697.428C697.128 500.9 697.328 501.1 697.328 501H697.428L697.728 500.9L698.328 500.7L699.528 500.3C701.128 499.8 702.728 499.3 704.328 498.8C707.528 497.9 711.128 497.5 714.628 497.3C718.228 497.1 721.828 497.3 725.528 497.7C729.128 498.2 732.828 499 736.328 500.1C743.428 502.2 750.028 505.7 755.628 509.5C758.428 511.4 760.928 513.5 763.128 515.4C765.328 517.4 767.228 519.3 768.928 521C769.728 521.8 770.528 522.6 771.128 523.3C771.828 524 772.328 524.6 772.828 525.1C773.828 526.1 774.628 526.7 775.028 526.7C774.328 536.7 771.728 547.5 767.728 556.3C766.828 558.5 765.728 560.5 764.728 562.4C763.728 564.3 762.728 566 761.728 567.5C759.728 570.5 758.028 572.7 756.828 574.1C758.028 573.1 760.728 570.1 763.828 565.3C765.328 562.9 766.928 560.1 768.328 557.1C769.028 555.6 769.728 554 770.428 552.3C771.128 550.6 771.728 548.9 772.228 547.2C772.728 545.5 773.328 543.7 773.728 541.8L774.028 540.4L774.328 539.1C774.528 538.2 774.628 537.3 774.828 536.4C775.128 534.6 775.428 532.8 775.628 531C775.828 529.3 775.928 527.5 776.028 525.8C776.028 524.9 776.128 524.1 776.128 523.2C776.128 522.4 776.128 521.6 776.128 520.8C776.128 519.2 776.028 517.7 775.928 516.2C775.728 513.2 775.328 510.6 774.928 508.2C774.928 508.2 773.928 507.5 772.828 506.8C771.828 506.2 770.728 505.5 770.728 505.5C768.628 495.2 766.528 490.2 765.528 487C764.428 483.9 764.228 482.7 764.128 481.6C764.028 480.4 763.928 479.3 762.728 476.3C762.128 474.8 761.228 472.8 759.728 470.2C759.328 469.5 758.928 468.9 758.528 468.1C758.328 467.7 758.028 467.4 757.828 467C757.528 466.5 757.128 466 756.728 465.4C756.028 464.3 755.128 463.2 754.228 462C753.728 461.4 753.328 460.8 752.828 460.2C752.628 459.9 752.328 459.6 752.128 459.3L751.828 459C751.928 458.8 752.128 458.7 752.228 458.7C752.328 458.7 752.428 458.6 752.528 458.6C752.528 458.6 752.628 458.6 752.728 458.6H752.828C752.828 458.6 752.928 458.7 753.028 458.7C754.028 459.4 755.428 460.7 757.028 462.6C757.828 463.5 758.728 464.6 759.728 465.9C760.428 466.8 761.128 467.8 761.928 468.9C762.728 470 763.528 471.2 764.328 472.4C765.128 473.7 765.928 475 766.728 476.5C769.828 482.3 772.928 489.4 775.028 497.6C777.128 505.8 778.328 515.1 778.028 524.8C778.428 516.1 777.828 507.8 776.428 500.4C775.028 493 773.028 486.2 770.528 480.3C768.128 474.4 765.228 469.3 762.228 465.1C762.028 464.8 761.828 464.6 761.628 464.3C761.328 464 761.128 463.6 760.928 463.3C760.428 462.6 759.928 462 759.428 461.4C758.428 460.2 757.428 459.1 756.528 458C756.328 457.7 756.028 457.5 755.828 457.2L755.428 456.8L755.228 456.6L755.128 456.5C754.928 456.4 754.828 456.3 754.628 456.3C754.328 456.2 753.928 456.1 753.628 456C753.428 455.7 753.328 455.5 753.128 455.3L753.028 455.1V455L751.328 453C751.128 452.8 750.928 452.5 750.728 452.3C750.028 451.4 749.428 450.6 748.828 449.9C747.828 448.5 747.128 447.6 746.828 447C746.128 445.8 746.628 445.5 746.928 445.2C747.228 444.9 747.528 444.5 746.328 442.7C745.728 441.8 744.728 440.7 743.228 439.2C742.528 438.4 741.628 437.6 740.528 436.6C739.528 435.7 738.328 434.6 736.928 433.5C735.828 432.8 734.828 432.1 733.728 431.4C732.628 430.7 731.528 430.1 730.428 429.4C729.328 428.8 728.228 428.2 727.028 427.6C726.428 427.3 725.928 427 725.328 426.7C724.728 426.4 724.228 426.2 723.628 425.9C719.028 423.7 714.528 421.9 710.128 420.3C705.728 418.7 701.628 417.4 697.728 416C693.828 414.7 690.328 413.4 687.128 412L687.528 411.6C683.628 410 680.328 409.1 677.028 408.1C673.728 407.2 670.628 406.5 667.528 405.9C666.728 405.8 666.028 405.6 665.228 405.5C664.428 405.4 663.728 405.3 663.028 405.2C661.528 405 660.128 404.9 658.628 404.7C655.728 404.4 652.928 404.2 650.128 404C648.728 403.9 647.328 403.8 645.928 403.7C644.528 403.7 643.128 403.6 641.828 403.6C639.028 403.5 636.228 403.4 633.428 403.1C632.028 403 630.528 402.9 629.128 402.7C627.628 402.6 626.228 402.4 624.728 402.3C621.728 402 618.628 401.5 615.328 400.9L618.228 400.1C615.928 399.5 612.928 399.1 609.628 398.9C606.328 398.8 602.628 398.7 598.728 398.7C596.728 398.7 594.728 398.7 592.628 398.7C590.628 398.7 588.528 398.8 586.428 398.8C582.228 398.8 578.028 398.7 573.828 398.4C576.228 398.6 578.428 399.3 578.828 399.9C579.028 400.2 578.728 400.6 577.828 400.9C576.928 401.2 575.328 401.4 572.828 401.7C568.128 401.5 563.828 401.5 559.828 401.7C557.828 401.7 555.828 401.9 554.028 402.1C552.128 402.3 550.328 402.4 548.528 402.6C545.028 402.9 541.528 403.2 538.228 403.4C534.928 403.7 531.628 403.8 528.228 403.6C528.228 403.6 527.428 403.9 526.328 404.3C525.228 404.7 523.628 405.3 522.128 405.9C519.128 407.1 516.128 408.4 516.128 408.4C508.428 409.5 498.028 411.5 485.828 414.1C482.828 414.8 479.628 415.5 476.328 416.2C473.028 416.9 469.728 417.8 466.228 418.6C462.828 419.5 459.228 420.3 455.628 421.3C452.028 422.3 448.328 423.3 444.628 424.3C440.828 425.3 437.128 426.4 433.328 427.5C431.428 428.1 429.428 428.6 427.528 429.2C425.628 429.8 423.628 430.4 421.728 430.9C417.828 432.1 413.928 433.3 409.928 434.5C406.128 435.7 402.228 436.9 398.228 438.1C382.828 442.9 367.928 447.4 354.228 450.7C347.328 452.3 340.728 453.7 334.528 454.6C328.328 455.6 321.828 456.2 315.228 456.7C302.028 457.6 288.328 457.5 274.928 457C268.228 456.8 261.728 456.4 255.328 456.1C248.928 455.7 242.828 455.4 237.228 455C226.128 454.3 217.228 453.7 210.828 453.1L212.828 452.8C203.128 452.1 192.428 451.1 181.528 449.5C178.828 449.1 176.128 448.6 173.328 448.2C172.628 448.1 172.028 447.9 171.328 447.8C171.128 447.8 171.128 447.8 171.128 447.8C171.128 447.8 171.128 447.8 171.028 447.8H170.828H170.528C169.628 447.7 168.728 447.5 167.828 447.3C166.928 447.1 165.928 446.8 164.928 446.5C163.928 446.2 162.928 445.8 162.028 445.2C161.128 444.7 160.228 444 159.428 443.1C158.728 442.3 158.128 441.2 157.928 440.1C157.728 439 157.928 437.9 158.428 436.9C158.828 435.9 159.528 435 160.228 434.2C161.728 432.6 163.528 431.3 165.428 430.1C166.428 429.5 167.428 429 168.428 428.4C168.728 428.3 168.928 428.1 169.228 428L169.428 427.9C169.428 427.9 169.528 427.9 169.628 427.8L169.928 427.7L170.728 427.4L171.728 427.1C173.028 426.7 174.328 426.2 175.628 425.8C177.028 425.4 178.328 425 179.628 424.6C190.328 421.3 201.028 418.5 211.028 416C212.628 416 214.328 416 216.128 415.9C217.928 415.8 219.728 415.7 221.628 415.5C225.328 415.1 229.328 414.6 233.328 414C235.328 413.7 237.428 413.3 239.428 413C241.428 412.7 243.528 412.3 245.528 412C249.628 411.3 253.628 410.6 257.428 410C253.128 410.3 251.628 409.7 252.028 409C252.328 408.3 254.628 407.3 257.828 406.7C260.628 406.1 263.128 405.6 265.428 405.1C267.628 404.6 269.528 404.1 271.228 403.8C274.528 403 276.828 402.3 278.428 401.8C281.628 400.8 281.928 400.4 282.228 400C282.528 399.5 282.928 399 286.128 397.8C289.328 396.5 295.428 394.6 307.428 390.4C309.128 389.8 311.028 389 313.028 388.3C315.028 387.5 317.228 386.6 319.628 385.7C320.828 385.2 322.028 384.8 323.228 384.3C324.428 383.8 325.728 383.2 327.028 382.7C328.328 382.1 329.628 381.6 331.028 381C331.728 380.7 332.428 380.4 333.128 380.1C333.828 379.8 334.528 379.4 335.228 379.1C346.628 374 360.128 367.1 374.328 357.4C377.828 354.9 381.428 352.3 385.028 349.5C386.828 348.1 388.628 346.6 390.428 345.1C392.228 343.6 394.028 342.2 395.728 340.5C397.428 338.9 399.228 337.2 401.028 335.6L402.328 334.3C402.728 333.9 403.228 333.5 403.728 333C404.728 332 405.728 331 406.628 329.9C410.528 325.8 414.128 321.4 417.428 316.9C424.128 307.8 430.028 297.8 434.728 286.5C439.428 275.2 443.028 262.6 444.228 248.2C444.828 241 444.728 233.4 443.628 225.5C442.528 217.6 440.528 209.5 437.328 201.7C436.528 199.8 435.728 197.8 434.828 195.9L433.428 193.1C433.128 192.6 433.028 192.2 432.628 191.7L431.628 189.9C430.928 188.7 430.228 187.6 429.528 186.4L428.528 184.8L428.128 184.2L427.428 183.1L427.028 182.5L425.828 180.8L425.628 180.5L425.128 179.9C420.228 173.3 414.728 167.7 409.428 163.1L407.428 161.4C406.728 160.8 406.128 160.3 405.428 159.8C404.128 158.7 402.828 157.8 401.528 156.8C400.828 156.3 400.228 155.9 399.628 155.4L398.828 154.8C398.728 154.7 398.528 154.6 398.328 154.4C397.728 153.9 397.028 153.5 396.428 153.1C395.128 152.4 393.928 151.7 392.728 151.1C391.628 150.5 390.528 150.1 389.528 149.7C388.528 149.4 387.728 149 386.928 148.8C386.128 148.5 385.528 148.3 385.028 148.2C384.528 148 384.128 147.9 383.828 147.8C380.828 148.2 378.228 148.4 376.128 148.5C374.028 148.6 372.228 148.7 370.628 148.7C369.028 148.7 367.528 148.8 365.628 149C363.728 149.2 361.528 149.4 358.128 149.9L361.528 149.3C360.328 149.4 358.228 149.7 355.528 150C354.428 150.1 353.328 150.3 352.028 150.4C351.728 150.4 351.428 150.5 351.128 150.5C351.028 150.2 351.028 149.8 351.028 149.5C351.128 148.8 351.528 148.1 352.028 147.4C353.028 146.1 354.528 145.1 355.928 144.1C357.428 143.1 358.928 142.1 360.428 141.1C363.428 139.1 366.528 137.4 369.328 135.8C375.328 132.5 380.128 130.5 381.328 129.2L379.428 129.1C379.528 128.6 379.728 128.2 380.028 127.8C380.328 127.5 380.728 127.3 381.228 127.2C382.128 127 383.328 127 384.628 127.3C387.128 127.8 390.128 128.8 392.728 129C391.128 127.9 390.028 126.9 389.328 126C388.628 125 388.328 124.2 388.428 123.3C388.528 121.7 390.028 120.6 391.128 120.2L391.928 121.2C392.628 120.9 393.428 120.4 394.528 119.7C395.528 119 396.828 118.4 398.328 117.6C399.828 117 401.628 116.3 403.528 115.8C404.428 115.6 405.428 115.4 406.428 115.2C407.428 115 408.428 115 409.228 115L408.928 117.6C409.128 117.5 409.228 117.4 409.428 117.4L409.728 117.3H409.828H409.928C409.928 117.3 410.028 117.3 410.128 117.3C411.228 117.2 412.328 117.2 413.428 117.1C415.728 117 418.228 117.1 420.828 117.2C423.428 117.3 426.028 117.4 428.728 117.7C431.428 118 434.228 118.3 436.928 118.6C439.628 118.9 442.428 119.3 445.028 119.7C447.628 120.1 450.228 120.4 452.628 120.8C457.428 121.5 461.628 122.2 464.628 122.6C478.228 125.2 495.828 129.6 515.828 133.2C518.328 133.6 520.828 134.1 523.428 134.5C526.028 134.9 528.628 135.2 531.228 135.6C533.828 136 536.428 136.3 539.128 136.6C541.828 136.9 544.528 137.1 547.228 137.4L551.328 137.7C552.628 137.8 554.028 137.9 555.428 137.9C558.228 138 560.928 138.1 563.728 138.1C565.128 138.1 566.428 138.1 567.828 138.2C569.128 138.2 570.628 138.2 572.328 138.2C575.628 138.1 579.528 138 583.828 137.5C583.828 137.5 584.528 137.6 585.628 137.7C586.728 137.8 588.428 138 590.328 138.1C594.228 138.3 599.628 138.3 604.828 137.6C610.128 137 615.228 135.7 618.628 134.6C620.328 134 621.828 133.5 622.728 133.2C623.228 133 623.628 132.9 623.828 132.8C624.028 132.7 624.228 132.6 624.228 132.6C624.228 132.6 624.528 132.4 624.828 132C625.228 131.6 625.728 131.2 626.228 130.7C626.728 130.2 627.128 129.7 627.528 129.4C627.828 129 628.028 128.8 628.028 128.8C628.028 128.8 628.028 128.3 628.028 127.4C628.028 126.5 627.928 125.2 627.828 123.6C627.628 122 627.428 119.9 627.028 117.7C626.828 116.6 626.628 115.3 626.328 114.1C626.028 112.8 625.628 111.5 625.228 110.1C623.628 104.6 621.128 98.2 617.528 91.5C617.128 90.6 616.628 89.8 616.228 88.9C615.728 88 615.228 87.2 614.828 86.3C613.828 84.5 612.828 82.7 611.928 81C609.828 77.5 607.728 73.9 605.628 70.2C604.928 68.4 604.228 66.6 603.428 64.8C603.028 63.9 602.628 63 602.228 62.1L601.928 61.4L601.728 61C601.628 60.7 601.528 60.5 601.428 60.2C600.528 58 599.528 56 598.328 54C597.128 52 595.828 50.2 594.328 48.5C593.928 48.1 593.528 47.7 593.128 47.3C592.928 47.1 592.728 46.9 592.528 46.7C592.428 46.5 592.328 46.3 592.228 46.1C591.928 45.4 591.528 44.7 591.128 43.9C590.428 42.5 589.628 41.2 588.928 40C588.128 38.9 587.328 37.8 586.428 36.9C584.628 35 582.628 33.5 580.828 32.1L580.128 29.5C580.128 29.5 579.728 29.9 579.328 30.2C578.928 30.5 578.428 30.7 578.428 30.7C577.828 30.5 577.328 30.5 576.828 30.6H576.728C576.728 30.6 576.628 30.7 576.528 30.7L576.428 30.8C576.328 30.8 576.328 30.8 576.228 30.9C576.128 30.9 576.028 31 575.928 31C575.628 31.1 575.428 31.1 575.128 31.1C574.828 31.1 574.628 31.1 574.428 31.1C574.128 31 573.928 30.7 574.128 30C574.128 30 574.728 30 575.528 30.1C576.228 30.1 576.828 30.2 576.728 30.2C577.028 30.2 577.528 30.2 577.728 30.2C578.028 30.2 578.228 30.1 578.228 30.1C577.028 30 576.828 29.4 577.028 28.7C577.128 28.1 577.628 27.2 577.728 26.4C577.328 26.4 577.028 26.3 576.628 26.1C576.528 26 576.428 26 576.428 25.9C576.428 25.8 576.528 25.8 576.428 25.7C576.328 25.6 576.328 25.6 576.228 25.5C576.128 25.4 576.028 25.3 575.828 25.2C575.328 25.7 575.528 26 575.928 26.2C576.028 26.3 576.228 26.4 576.328 26.5C576.428 26.6 576.528 26.7 576.528 26.9C576.428 27.1 576.028 27.5 575.128 27.8C574.828 27.9 574.628 28 574.328 28C574.028 28.1 573.728 28.1 573.328 28.2C572.528 28.3 571.628 28.4 570.828 28.5C567.428 28.9 563.828 29 560.528 28.2C549.828 27 560.228 23.9 547.828 22.4C531.328 20.1 514.028 16.9 495.828 13.4C477.628 9.99999 458.428 6.4 437.928 3.7L430.128 2.8L426.228 2.3C424.928 2.1 423.628 2 422.228 1.9L418.228 1.5L411.628 1L408.228 0.699997L404.828 0.5C402.628 0.4 400.328 0.300003 398.128 0.300003C393.628 0.200003 389.228 0.199998 384.728 0.0999985L378.028 0H374.628C373.528 0 372.428 0.0999969 371.328 0.199997C366.928 0.499997 362.628 0.799998 358.228 1.1L351.628 1.6L348.328 1.8L345.128 2.3C340.928 2.9 336.728 3.6 332.528 4.2L326.228 5.2C325.228 5.4 324.128 5.5 323.128 5.7L320.128 6.4C316.128 7.4 312.128 8.3 308.128 9.3L302.128 10.7C301.128 11 300.128 11.1 299.128 11.5L296.328 12.4C292.528 13.6 288.728 14.8 285.028 16L282.228 16.9C281.328 17.2 280.328 17.5 279.428 17.9L274.028 20C270.428 21.4 266.828 22.8 263.328 24.2C262.428 24.5 261.528 24.9 260.728 25.3L258.228 26.5L253.128 28.8C249.528 29.1 252.528 27.8 255.228 26.1C251.228 28.1 247.228 30 243.328 31.9C239.628 33.9 235.828 35.9 232.228 37.8C230.428 38.8 228.528 39.7 226.728 40.7C225.028 41.7 223.328 42.7 221.528 43.7C218.128 45.7 214.628 47.7 211.328 49.7C208.128 51.8 204.928 53.8 201.728 55.9C200.128 56.9 198.528 58 197.028 59C195.528 60.1 194.028 61.1 192.528 62.2C189.528 64.3 186.628 66.4 183.628 68.6C180.728 70.8 178.028 73 175.228 75.2C167.028 79.5 163.328 80.4 159.928 81.5C161.028 81.1 158.628 83.4 153.828 87.5C151.428 89.5 148.628 92.1 145.328 95C143.628 96.4 141.928 98 140.028 99.6C138.228 101.2 136.228 103 134.228 104.7C133.228 105.7 132.228 106.6 131.228 107.6C130.728 108.1 130.228 108.6 129.628 109.1C129.128 109.6 128.528 110.1 128.128 110.6C126.328 112.7 124.428 114.8 122.528 117C118.228 121.4 115.728 126 112.528 130.6L111.328 132.3C110.928 132.9 110.728 133.4 110.428 134L108.728 137.4C108.128 138.5 107.628 139.7 107.028 140.8L106.228 142.5C105.928 143.1 105.628 143.6 105.428 144.2C104.628 146.4 103.928 148.5 103.128 150.6C102.728 151.7 102.428 152.7 102.028 153.7C101.828 154.2 101.728 154.7 101.628 155.2C101.528 155.7 101.428 156.2 101.328 156.7C100.928 158.6 100.428 160.5 100.028 162.3C99.828 163.2 99.628 164.1 99.428 164.9C99.328 165.7 99.128 166.6 99.028 167.4C98.628 170.8 98.328 174.1 98.328 177.2C98.328 180.3 98.428 183.3 98.628 185.4C99.628 187.8 99.828 189.2 99.828 189.4Z" fill="url(#paint2_linear_61_178)"/>
<defs>
<linearGradient id="paint0_linear_61_178" x1="580.334" y1="26.1184" x2="580.334" y2="28.4001" gradientUnits="userSpaceOnUse">
<stop stop-color="white"/>
<stop offset="1" stop-color="#FDD20D"/>
</linearGradient>
<linearGradient id="paint1_linear_61_178" x1="775.778" y1="524.3" x2="775.778" y2="551.8" gradientUnits="userSpaceOnUse">
<stop stop-color="white"/>
<stop offset="1" stop-color="#FDD20D"/>
</linearGradient>
<linearGradient id="paint2_linear_61_178" x1="389.075" y1="0" x2="389.075" y2="574.1" gradientUnits="userSpaceOnUse">
<stop stop-color="white"/>
<stop offset="1" stop-color="#FDD20D"/>
</linearGradient>
</defs>
</svg>
