<svg width="17" height="13" viewBox="0 0 17 13" fill="none" xmlns="http://www.w3.org/2000/svg">
<path fill-rule="evenodd" clip-rule="evenodd" d="M8.08664 0.324902C6.8106 0.324902 5.77617 1.35934 5.77617 2.63537C5.77617 3.91141 6.8106 4.94584 8.08664 4.94584C9.36274 4.94584 10.3971 3.91141 10.3971 2.63537C10.3971 1.35934 9.36274 0.324902 8.08664 0.324902ZM3.56915 4.81977C5.97422 4.81977 7.9239 6.76946 7.9239 9.1745V12.7437H5.75785V9.1745C5.75785 8.91833 5.71386 8.67255 5.63301 8.4441L2.45136 11.6258L0.919725 10.0941L3.98798 7.02587C3.85242 6.9996 3.71239 6.98584 3.56915 6.98584H0V4.81977H3.56915ZM12.658 4.81977C10.253 4.81977 8.30325 6.76946 8.30325 9.1745V12.7437H10.4693V9.1745C10.4693 8.97392 10.4963 8.77955 10.5469 8.595L13.8751 11.9232L15.4068 10.3915L12.0786 7.06337C12.2631 7.01283 12.4575 6.98584 12.658 6.98584H16.2271V4.81977H12.658Z" fill="#FF814C"/>
</svg>
